<svg width="20" height="20" viewBox="0 0 20 20" fill="none" xmlns="http://www.w3.org/2000/svg">
<g clip-path="url(#clip0_2541_6220)">
<path d="M13.8267 12.3784L12.4453 13.7598L18.3249 19.6394L19.7063 18.258L13.8267 12.3784Z" fill="#4B67FA"/>
<path d="M19.0237 19.9516C19.5631 19.9516 20.0005 19.5143 20.0005 18.9748C20.0005 18.4354 19.5631 17.998 19.0237 17.998C18.4842 17.998 18.0469 18.4354 18.0469 18.9748C18.0469 19.5143 18.4842 19.9516 19.0237 19.9516Z" fill="#4B67FA"/>
<path d="M7.99756 15.9951C3.58974 15.9951 0 12.4054 0 7.99756C0 3.58974 3.58974 0 7.99756 0C12.4054 0 15.9951 3.58974 15.9951 7.99756C15.9951 12.4054 12.4054 15.9951 7.99756 15.9951ZM7.99756 1.9536C4.66422 1.9536 1.9536 4.66422 1.9536 7.99756C1.9536 11.3309 4.66422 14.0415 7.99756 14.0415C11.3309 14.0415 14.0415 11.3309 14.0415 7.99756C14.0415 4.66422 11.3309 1.9536 7.99756 1.9536Z" fill="#596168"/>
</g>
<defs>
<clipPath id="clip0_2541_6220">
<rect width="20" height="20" fill="white"/>
</clipPath>
</defs>
</svg>
