<svg width="40" height="40" viewBox="0 0 40 40" fill="none" xmlns="http://www.w3.org/2000/svg">
<g clip-path="url(#clip0_900_428)">
<path d="M6.71101 19.9996C6.71101 19.468 6.75531 18.9586 6.79961 18.4492H1.88266C1.01888 18.4492 0.332275 19.1358 0.332275 19.9996C0.332275 20.8634 1.01888 21.55 1.88266 21.55H6.79961C6.73316 21.0406 6.71101 20.5312 6.71101 19.9996Z" fill="#4B67FA"/>
<path d="M7.17608 21.8824H1.88261C0.841639 21.8824 0 21.0408 0 19.9998C0 18.9588 0.841639 18.1172 1.88261 18.1172H7.17608L7.13178 18.4937C7.06534 19.0031 7.04319 19.5125 7.04319 19.9998C7.04319 20.4871 7.06534 20.9965 7.13178 21.5059L7.17608 21.8824ZM1.88261 18.7816C1.21816 18.7816 0.664452 19.3353 0.664452 19.9998C0.664452 20.6643 1.21816 21.218 1.88261 21.218H6.44518C6.40089 20.7971 6.37874 20.3985 6.37874 19.9998C6.37874 19.6011 6.37874 19.2025 6.44518 18.7816H1.88261Z" fill="#4B67FA"/>
<path d="M6.09084 8.28377L9.56814 11.7611C10.2104 10.9416 10.9413 10.2107 11.7608 9.56838L8.28353 6.09108C7.68552 5.49308 6.68885 5.49308 6.09084 6.09108C5.49283 6.68909 5.49283 7.68577 6.09084 8.28377Z" fill="#4B67FA"/>
<path d="M9.61246 12.2703L5.86938 8.52727C5.51501 8.17289 5.31567 7.70778 5.31567 7.19837C5.31567 6.68895 5.51501 6.22384 5.86938 5.86946C6.60028 5.13856 7.79629 5.13856 8.52719 5.86946L12.2703 9.61254L11.9823 9.83402C11.185 10.4542 10.4763 11.1851 9.83395 11.9824L9.61246 12.2703ZM7.19829 5.9802C6.88821 5.9802 6.57813 6.09095 6.3345 6.33458C6.09087 6.57821 5.98013 6.86614 5.98013 7.19837C5.98013 7.53059 6.11302 7.81852 6.3345 8.06215L9.56817 11.2958C10.0997 10.6757 10.6756 10.0998 11.2957 9.56824L8.06208 6.33458C7.81844 6.09095 7.50836 5.9802 7.19829 5.9802Z" fill="#4B67FA"/>
<path d="M30.4319 11.7611L33.9092 8.28377C34.5073 7.68577 34.5073 6.68909 33.9092 6.09108C33.3112 5.49308 32.3146 5.49308 31.7166 6.09108C31.1185 6.68909 31.7166 6.09108 31.7166 6.09108L28.2393 9.56838C29.0587 10.2107 29.7896 10.9416 30.4319 11.7611Z" fill="#4B67FA"/>
<path d="M30.4098 12.27L30.1883 11.9821C29.5681 11.1848 28.8372 10.476 28.0399 9.8337L27.752 9.61222L31.495 5.86914C31.8494 5.51477 32.3367 5.31543 32.8239 5.31543C33.3112 5.31543 33.7985 5.51477 34.1528 5.86914C34.8837 6.60004 34.8837 7.79605 34.1528 8.52695L30.4098 12.27ZM28.7486 9.54577C29.3688 10.0773 29.9446 10.6532 30.4762 11.2733L33.7099 8.03968C34.175 7.57457 34.175 6.79937 33.7099 6.31211C33.2448 5.84699 32.4696 5.84699 31.9823 6.31211L28.7486 9.54577Z" fill="#4B67FA"/>
<path d="M18.4497 3.43281V6.79936C18.9591 6.73292 19.4685 6.71077 20.0001 6.71077C20.5317 6.71077 21.0411 6.75507 21.5505 6.79936V1.88242C21.5505 1.01863 20.8639 0.332031 20.0001 0.332031C19.1363 0.332031 18.4497 1.01863 18.4497 1.88242C18.4497 1.88242 18.4497 2.74621 18.4497 1.88242V3.43281Z" fill="#4B67FA"/>
<path d="M21.8827 7.17608L21.5061 7.13178C20.9967 7.06534 20.4873 7.04319 20 7.04319C19.5128 7.04319 19.0034 7.06534 18.494 7.13178L18.1174 7.17608V1.88261C18.1174 0.841639 18.9591 0 20 0C21.041 0 21.8827 0.841639 21.8827 1.88261V7.17608ZM20 6.37874C20.3987 6.37874 20.7974 6.37874 21.2182 6.44518V1.88261C21.2182 1.21816 20.6645 0.664452 20 0.664452C19.3356 0.664452 18.7819 1.21816 18.7819 1.88261V6.44518C19.2027 6.40089 19.6014 6.37874 20 6.37874Z" fill="#4B67FA"/>
<path d="M20.0001 33.2898C19.4685 33.2898 18.9591 33.2455 18.4497 33.2012V36.3462V36.5677V38.1181C18.4497 38.9819 19.1363 39.6685 20.0001 39.6685C20.8639 39.6685 21.5505 38.9819 21.5505 38.1181V33.2012C21.0411 33.2676 20.5317 33.2898 20.0001 33.2898Z" fill="#4B67FA"/>
<path d="M20 40.0003C18.9591 40.0003 18.1174 39.1587 18.1174 38.1177V32.8242L18.494 32.8685C19.0034 32.935 19.5128 32.9571 20 32.9571C20.4873 32.9571 20.9967 32.935 21.5061 32.8685L21.8827 32.8242V38.1177C21.8827 39.1587 21.041 40.0003 20 40.0003ZM18.7819 33.5551V38.1177C18.7819 38.7821 19.3356 39.3358 20 39.3358C20.6645 39.3358 21.2182 38.7821 21.2182 38.1177V33.5551C20.3987 33.6216 19.6235 33.6216 18.7819 33.5551Z" fill="#4B67FA"/>
<path d="M38.1174 18.4492H33.2004C33.2669 18.9586 33.289 19.468 33.289 19.9996C33.289 20.5312 33.2447 21.0406 33.2004 21.55H38.1174C38.9812 21.55 39.6678 20.8634 39.6678 19.9996C39.6678 19.1358 38.9812 18.4492 38.1174 18.4492Z" fill="#4B67FA"/>
<path d="M32.824 21.8824L32.8683 21.5059C32.9347 20.9743 32.9569 20.4871 32.9569 19.9998C32.9569 19.5125 32.9347 19.0031 32.8683 18.4937L32.824 18.1172H38.1174C39.1584 18.1172 40.0001 18.9588 40.0001 19.9998C40.0001 21.0408 39.1584 21.8824 38.1174 21.8824H32.824ZM33.5549 21.218H38.1174C38.7819 21.218 39.3356 20.6643 39.3356 19.9998C39.3356 19.3353 38.804 18.7816 38.1396 18.7816H33.577C33.6213 19.2025 33.6435 19.6011 33.6435 19.9998C33.6435 20.3985 33.6435 20.7971 33.577 21.218H33.5549Z" fill="#4B67FA"/>
<path d="M33.9092 31.7166L30.4319 28.2393C29.7896 29.0587 29.0587 29.7896 28.2393 30.4319L31.7166 33.9092C32.3146 34.5073 33.3112 34.5073 33.9092 33.9092C34.5073 33.3112 34.5073 32.3146 33.9092 31.7166Z" fill="#4B67FA"/>
<path d="M32.8239 34.7065C32.4253 34.7065 32.0044 34.5737 31.6722 34.3079L27.752 30.4098L28.0399 30.1883C28.8372 29.5681 29.546 28.8372 30.1883 28.0399L30.4098 27.752L34.1528 31.495C34.5072 31.8494 34.7065 32.3145 34.7065 32.8239C34.7065 33.3333 34.5072 33.7985 34.1528 34.1528C33.7985 34.5072 33.3112 34.7065 32.8239 34.7065ZM31.7165 33.4441L31.9601 33.6877C32.1816 33.9092 32.4917 34.0421 32.8239 34.0421C33.1562 34.0421 33.4441 33.9092 33.6877 33.6877C34.1528 33.2226 34.1528 32.4474 33.6877 31.9601L33.9314 31.7165L33.6877 31.9601L30.4762 28.7486C29.9446 29.3688 29.3688 29.9446 28.7486 30.4762L31.7387 33.4662L31.7165 33.4441Z" fill="#4B67FA"/>
<path d="M9.56814 28.2393L6.09084 31.7166C5.49283 32.3146 5.49283 33.3112 6.09084 33.9092C6.68885 34.5073 7.68552 34.5073 8.28353 33.9092L11.7608 30.4319C10.9413 29.7896 10.2104 29.0587 9.56814 28.2393Z" fill="#4B67FA"/>
<path d="M7.19829 34.7065C6.71102 34.7065 6.22376 34.5294 5.86938 34.1528C5.51501 33.7763 5.31567 33.3333 5.31567 32.8239C5.31567 32.3145 5.51501 31.8494 5.86938 31.495L9.61246 27.752L9.83395 28.0399C10.4541 28.8372 11.185 29.546 11.9823 30.1883L12.2703 30.4098L8.52719 34.1528C8.15067 34.5294 7.68555 34.7065 7.19829 34.7065ZM9.56817 28.7486L6.3345 31.9823C5.86938 32.4474 5.86938 33.2226 6.3345 33.7099C6.79962 34.175 7.57481 34.175 8.06208 33.7099L11.2957 30.4762C10.6756 29.9446 10.0997 29.3688 9.56817 28.7486Z" fill="#4B67FA"/>
<path d="M20 10.2547C25.382 10.2547 29.7453 14.6179 29.7453 20C29.7453 25.382 25.382 29.7453 20 29.7453C14.6179 29.7453 10.2547 25.382 10.2547 20C10.2547 14.6179 14.6179 10.2547 20 10.2547ZM20 6.71094C12.6689 6.71094 6.71094 12.6689 6.71094 20C6.71094 27.3311 12.6689 33.289 20 33.289C27.3311 33.289 33.289 27.3311 33.289 20C33.289 12.6689 27.3311 6.71094 20 6.71094Z" fill="#596168"/>
</g>
<defs>
<clipPath id="clip0_900_428">
<rect width="40" height="40" fill="white"/>
</clipPath>
</defs>
</svg>
