<svg width="40" height="40" viewBox="0 0 40 40" fill="none" xmlns="http://www.w3.org/2000/svg">
<path d="M20.246 22.0655C16.9062 22.0655 14.1736 19.3264 14.1736 15.9786C14.1736 12.6307 16.9062 9.8916 20.246 9.8916C23.5858 9.8916 26.3184 12.6307 26.3184 15.9786C26.3184 19.3264 23.5858 22.0655 20.246 22.0655ZM20.246 13.3699C18.8146 13.3699 17.6435 14.5438 17.6435 15.9786C17.6435 17.4133 18.8146 18.5873 20.246 18.5873C21.6773 18.5873 22.8484 17.4133 22.8484 15.9786C22.8484 14.5438 21.6773 13.3699 20.246 13.3699Z" fill="#DADCE0"/>
<path d="M20.246 4.47826C26.7522 4.47826 32.0221 9.78261 32.0221 16.2826C32.0221 19.7609 30.3739 23.1957 26.6654 27.4565L20.2677 34.6087C19.3135 33.5217 18.4894 32.6087 17.6219 31.6739C16.6026 30.5652 15.4315 29.2826 13.8483 27.4783C10.1182 23.2174 8.46993 19.7609 8.46993 16.2826C8.46993 9.76087 13.7616 4.47826 20.246 4.47826ZM20.246 1C11.8314 1 5 7.84783 5 16.2826C5 21.5217 7.92776 25.9783 11.2459 29.7609C14.7375 33.7609 16.1038 35.0217 18.8581 38.2609C18.9231 38.3478 18.9882 38.413 19.0532 38.5C19.3569 38.8043 19.7906 39 20.2677 39C20.7448 39 21.1569 38.8043 21.4822 38.5L21.634 38.3261L29.2895 29.7609C32.6077 25.9565 35.5354 21.5217 35.5354 16.2826C35.5137 7.84783 28.6823 1 20.246 1Z" fill="#DADCE0"/>
</svg>
