<svg width="28" height="28" viewBox="0 0 28 28" fill="none" xmlns="http://www.w3.org/2000/svg">
<path d="M14.0005 28C21.5872 28 27.7374 21.8388 27.7374 14.2385C27.7374 6.63827 21.5872 0.477051 14.0005 0.477051C6.41386 0.477051 0.263672 6.63827 0.263672 14.2385C0.263672 21.8388 6.41386 28 14.0005 28Z" fill="#FF5959"/>
<path d="M8.98328 20.5507C9.69136 20.5507 10.2654 19.9757 10.2654 19.2663C10.2654 18.557 9.69136 17.9819 8.98328 17.9819C8.27519 17.9819 7.70117 18.557 7.70117 19.2663C7.70117 19.9757 8.27519 20.5507 8.98328 20.5507Z" fill="white"/>
<path d="M8.98284 20.7341C8.17695 20.7341 7.51758 20.0736 7.51758 19.2662C7.51758 18.4589 8.17695 17.7983 8.98284 17.7983C9.78874 17.7983 10.4481 18.4589 10.4481 19.2662C10.4481 20.0736 9.78874 20.7341 8.98284 20.7341ZM8.98284 18.1653C8.37842 18.1653 7.88389 18.6607 7.88389 19.2662C7.88389 19.8717 8.37842 20.3671 8.98284 20.3671C9.58726 20.3671 10.0818 19.8717 10.0818 19.2662C10.0818 18.6607 9.58726 18.1653 8.98284 18.1653Z" fill="white"/>
<path d="M18.9637 10.5507C19.6718 10.5507 20.2458 9.97569 20.2458 9.26634C20.2458 8.55698 19.6718 7.98193 18.9637 7.98193C18.2557 7.98193 17.6816 8.55698 17.6816 9.26634C17.6816 9.97569 18.2557 10.5507 18.9637 10.5507Z" fill="white"/>
<path d="M18.9633 10.7341C18.1574 10.7341 17.498 10.0736 17.498 9.26623C17.498 8.45889 18.1574 7.79834 18.9633 7.79834C19.7692 7.79834 20.4286 8.45889 20.4286 9.26623C20.4286 10.0736 19.7692 10.7341 18.9633 10.7341ZM18.9633 8.16531C18.3589 8.16531 17.8644 8.66072 17.8644 9.26623C17.8644 9.87173 18.3589 10.3671 18.9633 10.3671C19.5677 10.3671 20.0623 9.87173 20.0623 9.26623C20.0623 8.66072 19.5677 8.16531 18.9633 8.16531Z" fill="white"/>
<path d="M9.87789 20.1761L19.8633 10.1729L18.0501 8.35643L8.06472 18.3597L9.87789 20.1761Z" fill="white"/>
<path d="M9.88023 20.4399L7.81055 18.3665L18.0674 8.09131L20.1371 10.1647L9.88023 20.4399ZM8.32339 18.3665L9.88023 19.9262L19.6059 10.1831L18.0491 8.62342L8.32339 18.3665V18.3665Z" fill="white"/>
<path d="M18.9637 20.5507C19.6718 20.5507 20.2458 19.9757 20.2458 19.2663C20.2458 18.557 19.6718 17.9819 18.9637 17.9819C18.2557 17.9819 17.6816 18.557 17.6816 19.2663C17.6816 19.9757 18.2557 20.5507 18.9637 20.5507Z" fill="white"/>
<path d="M18.9633 20.7341C18.1574 20.7341 17.498 20.0736 17.498 19.2662C17.498 18.4589 18.1574 17.7983 18.9633 17.7983C19.7692 17.7983 20.4286 18.4589 20.4286 19.2662C20.4286 20.0736 19.7692 20.7341 18.9633 20.7341ZM18.9633 18.1653C18.3589 18.1653 17.8644 18.6607 17.8644 19.2662C17.8644 19.8717 18.3589 20.3671 18.9633 20.3671C19.5677 20.3671 20.0623 19.8717 20.0623 19.2662C20.0623 18.6607 19.5677 18.1653 18.9633 18.1653Z" fill="white"/>
<path d="M8.98328 10.5507C9.69136 10.5507 10.2654 9.97569 10.2654 9.26634C10.2654 8.55698 9.69136 7.98193 8.98328 7.98193C8.27519 7.98193 7.70117 8.55698 7.70117 9.26634C7.70117 9.97569 8.27519 10.5507 8.98328 10.5507Z" fill="white"/>
<path d="M8.98284 10.7341C8.17695 10.7341 7.51758 10.0736 7.51758 9.26623C7.51758 8.45889 8.17695 7.79834 8.98284 7.79834C9.78874 7.79834 10.4481 8.45889 10.4481 9.26623C10.4481 10.0736 9.78874 10.7341 8.98284 10.7341ZM8.98284 8.16531C8.37842 8.16531 7.88389 8.66072 7.88389 9.26623C7.88389 9.87173 8.37842 10.3671 8.98284 10.3671C9.58726 10.3671 10.0818 9.87173 10.0818 9.26623C10.0818 8.66072 9.58726 8.16531 8.98284 8.16531Z" fill="white"/>
<path d="M20.0322 18.503L9.91602 8.36865L8.07909 10.2089L18.1953 20.3432L20.0322 18.503Z" fill="white"/>
<path d="M18.2018 20.6017L7.81055 10.1919L9.90735 8.09131L20.2986 18.5012L18.2018 20.6017ZM8.33011 10.1919L18.1832 20.0627L19.7605 18.4826L9.90735 8.63039L8.33011 10.2105V10.1919Z" fill="white"/>
</svg>
