<svg width="24" height="24" viewBox="0 0 24 24" fill="none" xmlns="http://www.w3.org/2000/svg">
<path d="M12 24C18.6274 24 24 18.6274 24 12C24 5.37258 18.6274 0 12 0C5.37258 0 0 5.37258 0 12C0 18.6274 5.37258 24 12 24Z" fill="#4ED092"/>
<path d="M19.1996 8.48296C19.1996 7.77527 18.6316 7.2002 17.9326 7.2002C17.6242 7.2002 17.3414 7.31298 17.1223 7.49889L16.1651 8.48296L10.3238 14.3738L6.98349 10.986L6.87926 10.8936C6.65892 10.7077 6.37616 10.5949 6.0677 10.5949C5.36875 10.5949 4.80078 11.1699 4.80078 11.8776C4.80078 12.19 4.91217 12.4763 5.09578 12.6993L5.3214 12.9311L10.3238 18.0002L18.8128 9.3963L18.9058 9.30343C19.0894 9.08034 19.2008 8.79404 19.2008 8.48296H19.1996Z" fill="white"/>
</svg>
