<svg width="40" height="40" viewBox="0 0 40 40" fill="none" xmlns="http://www.w3.org/2000/svg">
<path d="M36.078 36.469H3.92194C1.84695 36.469 0.129645 34.8509 0.012509 32.7835C-0.117178 30.4935 0.725786 28.4719 2.44518 26.939C3.95331 25.5954 6.46338 24.4577 9.90217 23.5592C11.2848 23.1973 12.5356 22.9498 13.3828 22.8001C13.7133 21.862 14.3513 20.6682 15.5707 19.7135C17.3947 18.2867 19.3526 18.295 20.001 18.293C20.6473 18.293 22.6157 18.2992 24.4229 19.7135C25.6424 20.6682 26.2804 21.862 26.6108 22.8001C27.458 22.9498 28.7088 23.1973 30.0915 23.5592C33.5303 24.4577 36.0403 25.5933 37.5485 26.939C39.2699 28.4719 40.1108 30.4935 39.9811 32.7835C39.8661 34.8509 38.1488 36.469 36.0717 36.469H36.078ZM19.9403 21.6229C19.4823 21.6229 18.5159 21.6478 17.6436 22.33C16.7024 23.0663 16.4472 24.1125 16.3823 24.5284L16.1878 25.7493L14.9579 25.9178C12.8703 26.2048 6.95284 27.3945 4.68123 29.4182C3.71695 30.2772 3.28396 31.3172 3.35717 32.5984C3.37391 32.9041 3.62282 33.1433 3.92403 33.1433H36.0801C36.3813 33.1433 36.6302 32.9041 36.6469 32.6004C36.718 31.3192 36.2851 30.2793 35.3229 29.4203C33.0513 27.3966 27.1338 26.2069 25.0462 25.9199L23.8163 25.7514L23.6218 24.5326C23.5548 24.1166 23.2997 23.0684 22.3605 22.3342C21.4589 21.6291 20.4361 21.627 19.9968 21.627C19.9801 21.627 19.9613 21.627 19.9403 21.627V21.6229Z" fill="#596168"/>
<path d="M26.6611 9.21689C26.454 5.88701 23.7703 3.22061 20.4215 3.01262C16.9074 2.79839 13.8137 5.33584 13.3703 8.79676C13.3473 8.91323 13.3347 9.03178 13.3347 9.14826C13.3347 9.17322 13.3347 9.20025 13.3389 9.22521V9.25641C13.3975 10.1882 14.1756 10.9162 15.1127 10.9162C16.0498 10.9162 16.8467 10.1632 16.8886 9.22521C16.9032 9.18154 16.9137 9.13786 16.922 9.09418C17.196 7.56547 18.5849 6.46522 20.1454 6.54009C21.7372 6.61497 23.0403 7.91073 23.1156 9.49352C23.1554 10.3504 22.85 11.1637 22.2559 11.7835C21.6598 12.4053 20.8565 12.7464 19.9969 12.7464C19.0179 12.7464 18.221 13.5389 18.2189 14.5123V19.8555C18.2189 20.8247 19.0221 21.6234 19.9969 21.6234C20.9716 21.6234 21.7748 20.8247 21.7748 19.8555V16.041C24.8162 15.2111 26.8598 12.3804 26.6632 9.21689H26.6611Z" fill="#4B67FA"/>
</svg>
