<svg width="28" height="28" viewBox="0 0 28 28" fill="none" xmlns="http://www.w3.org/2000/svg">
<path d="M14.0005 28C21.5872 28 27.7374 21.8388 27.7374 14.2385C27.7374 6.63827 21.5872 0.477051 14.0005 0.477051C6.41386 0.477051 0.263672 6.63827 0.263672 14.2385C0.263672 21.8388 6.41386 28 14.0005 28Z" fill="#4ED092"/>
<path d="M22.2406 10.2049C22.2406 9.39338 21.5904 8.73389 20.7903 8.73389C20.4372 8.73389 20.1135 8.86323 19.8627 9.07642L18.767 10.2049L12.0802 16.9604L8.25644 13.0755L8.13712 12.9694C7.8849 12.7562 7.56121 12.6269 7.2081 12.6269C6.40799 12.6269 5.75781 13.2864 5.75781 14.0979C5.75781 14.4561 5.88533 14.7844 6.09551 15.0403L6.35378 15.306L12.0802 21.1192L21.7979 11.2524L21.9043 11.1459C22.1145 10.89 22.242 10.5617 22.242 10.2049H22.2406Z" fill="white"/>
</svg>
