<svg width="40" height="40" viewBox="0 0 40 40" fill="none" xmlns="http://www.w3.org/2000/svg">
<path d="M5.76912 25.7599C2.58723 25.7599 0 23.1727 0 19.9908C0 16.8089 2.58723 14.2217 5.76912 14.2217C8.95102 14.2217 11.5382 16.8089 11.5382 19.9908C11.5382 23.1727 8.95102 25.7599 5.76912 25.7599ZM5.76912 17.3281C4.30022 17.3281 3.10645 18.5219 3.10645 19.9908C3.10645 21.4597 4.30022 22.6535 5.76912 22.6535C7.23803 22.6535 8.4318 21.4597 8.4318 19.9908C8.4318 18.5219 7.23803 17.3281 5.76912 17.3281Z" fill="#E4E4E8"/>
<path d="M19.8904 25.982C16.5865 25.982 13.8994 23.2949 13.8994 19.991C13.8994 16.6871 16.5865 14 19.8904 14C23.1944 14 25.8814 16.6871 25.8814 19.991C25.8814 23.2949 23.1944 25.982 19.8904 25.982ZM19.8904 17.5502C18.5436 17.5502 17.4496 18.6441 17.4496 19.991C17.4496 21.3379 18.5436 22.4318 19.8904 22.4318C21.2373 22.4318 22.3312 21.3379 22.3312 19.991C22.3312 18.6441 21.2373 17.5502 19.8904 17.5502Z" fill="#E4E4E8"/>
<path d="M34.0086 25.982C30.7047 25.982 28.0176 23.2949 28.0176 19.991C28.0176 16.6871 30.7047 14 34.0086 14C37.3125 14 39.9996 16.6871 39.9996 19.991C39.9996 23.2949 37.3125 25.982 34.0086 25.982ZM34.0086 17.5502C32.6617 17.5502 31.5678 18.6441 31.5678 19.991C31.5678 21.3379 32.6617 22.4318 34.0086 22.4318C35.3555 22.4318 36.4494 21.3379 36.4494 19.991C36.4494 18.6441 35.3555 17.5502 34.0086 17.5502Z" fill="#E4E4E8"/>
</svg>
