<svg width="24" height="24" viewBox="0 0 24 24" fill="none" xmlns="http://www.w3.org/2000/svg">
<g clip-path="url(#clip0_2541_7820)">
<path d="M16.5932 14.854L14.9355 16.5117L21.9911 23.5672L23.6488 21.9096L16.5932 14.854Z" fill="#4B67FA"/>
<path d="M22.8284 23.941C23.4758 23.941 24.0006 23.4162 24.0006 22.7688C24.0006 22.1215 23.4758 21.5967 22.8284 21.5967C22.181 21.5967 21.6562 22.1215 21.6562 22.7688C21.6562 23.4162 22.181 23.941 22.8284 23.941Z" fill="#4B67FA"/>
<path d="M9.59707 19.1941C4.30769 19.1941 0 14.8864 0 9.59707C0 4.30769 4.30769 0 9.59707 0C14.8864 0 19.1941 4.30769 19.1941 9.59707C19.1941 14.8864 14.8864 19.1941 9.59707 19.1941ZM9.59707 2.34432C5.59707 2.34432 2.34432 5.59707 2.34432 9.59707C2.34432 13.5971 5.59707 16.8498 9.59707 16.8498C13.5971 16.8498 16.8498 13.5971 16.8498 9.59707C16.8498 5.59707 13.5971 2.34432 9.59707 2.34432Z" fill="#596168"/>
</g>
<defs>
<clipPath id="clip0_2541_7820">
<rect width="24" height="24" fill="white"/>
</clipPath>
</defs>
</svg>
