<svg width="24" height="24" viewBox="0 0 24 24" fill="none" xmlns="http://www.w3.org/2000/svg">
<g clip-path="url(#clip0_2725_1022)">
<path d="M16.5924 14.854L14.9347 16.5117L21.9902 23.5672L23.6479 21.9096L16.5924 14.854Z" fill="#308AF2"/>
<path d="M22.8278 23.9415C23.4752 23.9415 24 23.4167 24 22.7693C24 22.122 23.4752 21.5972 22.8278 21.5972C22.1804 21.5972 21.6556 22.122 21.6556 22.7693C21.6556 23.4167 22.1804 23.9415 22.8278 23.9415Z" fill="#308AF2"/>
<path d="M9.59707 19.1941C4.30769 19.1941 0 14.8864 0 9.59707C0 4.30769 4.30769 0 9.59707 0C14.8864 0 19.1941 4.30769 19.1941 9.59707C19.1941 14.8864 14.8864 19.1941 9.59707 19.1941ZM9.59707 2.34432C5.59707 2.34432 2.34432 5.59707 2.34432 9.59707C2.34432 13.5971 5.59707 16.8498 9.59707 16.8498C13.5971 16.8498 16.8498 13.5971 16.8498 9.59707C16.8498 5.59707 13.5971 2.34432 9.59707 2.34432Z" fill="#5E6872"/>
</g>
<defs>
<clipPath id="clip0_2725_1022">
<rect width="24" height="24" fill="white"/>
</clipPath>
</defs>
</svg>
