<svg width="22" height="22" viewBox="0 0 22 22" fill="none" xmlns="http://www.w3.org/2000/svg">
<g clip-path="url(#clip0_2541_6226)">
<path d="M11.0002 7.69336C9.17652 7.69336 7.69336 9.17652 7.69336 11.0002C7.69336 12.8238 9.17652 14.307 11.0002 14.307C12.8238 14.307 14.307 12.8238 14.307 11.0002C14.307 9.17652 12.8238 7.69336 11.0002 7.69336V7.69336ZM11.0002 12.5923C10.122 12.5923 9.40799 11.8783 9.40799 11.0002C9.40799 10.122 10.122 9.40799 11.0002 9.40799C11.8783 9.40799 12.5923 10.122 12.5923 11.0002C12.5923 11.8783 11.8783 12.5923 11.0002 12.5923Z" fill="#4B67FA"/>
<path d="M11.0013 4.65279C10.4599 4.65279 10.0215 4.21433 10.0215 3.67299V0.979792C10.0215 0.438457 10.4599 0 11.0013 0C11.5426 0 11.9811 0.438457 11.9811 0.979792V3.67299C11.9811 4.21433 11.5426 4.65279 11.0013 4.65279V4.65279Z" fill="#4B67FA"/>
<path d="M11.0013 22.0002C10.4599 22.0002 10.0215 21.5617 10.0215 21.0204V18.3284C10.0215 17.7871 10.4599 17.3486 11.0013 17.3486C11.5426 17.3486 11.9811 17.7871 11.9811 18.3284V21.0204C11.9811 21.5617 11.5426 22.0002 11.0013 22.0002Z" fill="#4B67FA"/>
<path d="M21.0194 11.9801H18.3274C17.7861 11.9801 17.3477 11.5416 17.3477 11.0003C17.3477 10.459 17.7861 10.0205 18.3274 10.0205H21.0194C21.5608 10.0205 21.9992 10.459 21.9992 11.0003C21.9992 11.5416 21.5608 11.9801 21.0194 11.9801Z" fill="#4B67FA"/>
<path d="M3.67299 11.9801H0.979792C0.438457 11.9801 0 11.5416 0 11.0003C0 10.459 0.438457 10.0205 0.979792 10.0205H3.67299C4.21433 10.0205 4.65279 10.459 4.65279 11.0003C4.65279 11.5416 4.21433 11.9801 3.67299 11.9801V11.9801Z" fill="#4B67FA"/>
<path d="M11.0002 5.52097C14.0216 5.52097 16.4785 7.97902 16.4785 10.9992C16.4785 14.0194 14.0204 16.4775 11.0002 16.4775C7.98 16.4775 5.52195 14.0194 5.52195 10.9992C5.52195 7.97902 7.98 5.52097 11.0002 5.52097M11.0002 3.52832C6.87406 3.52832 3.5293 6.87308 3.5293 10.9992C3.5293 15.1254 6.87406 18.4701 11.0002 18.4701C15.1264 18.4701 18.4711 15.1254 18.4711 10.9992C18.4711 6.87308 15.1264 3.52832 11.0002 3.52832V3.52832Z" fill="#596168"/>
</g>
<defs>
<clipPath id="clip0_2541_6226">
<rect width="22" height="22" fill="white"/>
</clipPath>
</defs>
</svg>
