<svg width="40" height="40" viewBox="0 0 40 40" fill="none" xmlns="http://www.w3.org/2000/svg">
<path d="M20 22C16.7 22 14 19.3 14 16C14 12.7 16.7 10 20 10C23.3 10 26 12.7 26 16C26 19.3 23.3 22 20 22ZM20 13.4286C18.5857 13.4286 17.4286 14.5857 17.4286 16C17.4286 17.4143 18.5857 18.5714 20 18.5714C21.4143 18.5714 22.5714 17.4143 22.5714 16C22.5714 14.5857 21.4143 13.4286 20 13.4286Z" fill="#4B67FA"/>
<path d="M19.9787 4.47826C26.3707 4.47826 31.5483 9.78261 31.5483 16.2826C31.5483 19.7609 29.929 23.1957 26.2855 27.4565L20 34.6087C19.0625 33.5217 18.2528 32.6087 17.4006 31.6739C16.3991 30.5652 15.2486 29.2826 13.6932 27.4783C10.0284 23.2174 8.40909 19.7609 8.40909 16.2826C8.40909 9.76087 13.608 4.47826 19.9787 4.47826ZM19.9787 1C11.7116 1 5 7.84783 5 16.2826C5 21.5217 7.87642 25.9783 11.1364 29.7609C14.5668 33.7609 15.9091 35.0217 18.6151 38.2609C18.679 38.3478 18.7429 38.413 18.8068 38.5C19.1051 38.8043 19.5312 39 20 39C20.4688 39 20.8736 38.8043 21.1932 38.5L21.3423 38.3261L28.8636 29.7609C32.1236 25.9565 35 21.5217 35 16.2826C34.9787 7.84783 28.267 1 19.9787 1Z" fill="#596168"/>
</svg>
