<svg width="40" height="40" viewBox="0 0 40 40" fill="none" xmlns="http://www.w3.org/2000/svg">
<path d="M20.355 14.4912C17.3311 14.4912 14.8569 16.9653 14.8569 19.9893C14.8569 23.0132 17.3311 25.4873 20.355 25.4873C23.3789 25.4873 25.853 23.0132 25.853 19.9893C25.853 16.9653 23.3789 14.4912 20.355 14.4912ZM20.355 22.5268C18.9593 22.5268 17.8174 21.3849 17.8174 19.9893C17.8174 18.5936 18.9593 17.4517 20.355 17.4517C21.7506 17.4517 22.8926 18.5936 22.8926 19.9893C22.8926 21.3849 21.7506 22.5268 20.355 22.5268Z" fill="#DADCE0"/>
<path d="M37.1241 22.5904L34.4597 21.0467V18.911L37.1241 17.3673L37.9488 16.6694C38.7735 15.6756 38.9427 14.2376 38.266 13.0534L35.1575 7.70339C34.227 6.37117 32.4085 5.9271 30.9705 6.77295L28.3061 8.31664L26.4663 7.25932V4.17195C26.4663 2.41681 25.0495 1 23.2944 1H17.3734C15.6183 1 14.2014 2.41681 14.2014 4.17195V7.23817L12.3617 8.29549L9.23205 6.54035C7.81525 6.01169 6.16583 6.56149 5.38342 7.936L2.42293 13.0534C2 13.7935 1.89427 14.6605 2.10573 15.4641C2.3172 16.2888 2.84585 16.9655 3.58598 17.3884L6.25042 18.9321V21.0679L3.58598 22.5904C3.43795 22.675 3.26878 22.7807 3.12076 22.9076C3.01503 22.9922 2.93044 23.0768 2.84585 23.1825C2.82471 23.2248 2.78242 23.246 2.76127 23.2883C2.69783 23.3728 2.63439 23.4363 2.57095 23.5209C2.44407 23.7112 2.33834 23.9015 2.25376 24.113C2.19032 24.261 2.14802 24.3879 2.10573 24.5147C2.02115 24.8108 2 25.1068 2 25.424C2 25.9527 2.16917 26.4602 2.42293 26.9254L5.38342 32.064C5.44686 32.1697 5.5103 32.2755 5.59488 32.3812C5.70061 32.5292 6.03895 32.8676 6.03895 32.8676C6.46188 33.227 6.96939 33.4808 7.5192 33.5865H7.58264C7.75181 33.6288 7.92098 33.65 8.09015 33.65H8.13244H8.19588C8.23818 33.65 8.25932 33.65 8.30161 33.65C8.47079 33.65 8.63996 33.6077 8.78798 33.5865C8.85142 33.5865 8.91486 33.5654 8.9783 33.5442C9.02059 33.5442 9.06288 33.5231 9.08403 33.5019C9.14747 33.5019 9.18976 33.4597 9.23205 33.4385C9.27435 33.4385 9.33779 33.3962 9.38008 33.3751C9.48581 33.3328 9.5704 33.2905 9.67613 33.227L12.3406 31.6834L14.1803 32.7407V35.8069C14.1803 37.562 15.5971 38.9789 17.3523 38.9789H23.2732C25.0284 38.9789 26.4452 37.562 26.4452 35.8069V32.7407L28.2849 31.6834L30.9494 33.227C31.6895 33.65 32.5353 33.7557 33.36 33.5442C34.1002 33.3539 34.7134 32.9099 35.1363 32.2966L38.4563 26.4602C38.985 25.0434 38.4352 23.394 37.0607 22.6116L37.1241 22.5904ZM35.1363 25.3817V25.6355L32.5142 30.182L28.3484 27.7713L23.1252 30.7952V35.5954H17.6272V30.7952L12.404 27.7713L8.23818 30.182L5.48915 25.424L9.65498 23.0134V16.9655L5.48915 14.5548L8.23818 9.79688L12.404 12.2076L17.6272 9.18364V4.38342H23.1252V9.18364L28.3484 12.2076L32.5142 9.79688L35.1363 14.3434V14.6183L31.0974 16.9444V22.9922L35.1575 25.3395L35.1363 25.3817Z" fill="#DADCE0"/>
</svg>
