<svg width="26" height="26" viewBox="0 0 26 26" fill="none" xmlns="http://www.w3.org/2000/svg">
<g clip-path="url(#clip0_2541_7825)">
<g clip-path="url(#clip1_2541_7825)">
<path d="M12.9998 9.09277C10.8446 9.09277 9.0918 10.8456 9.0918 13.0008C9.0918 15.156 10.8446 16.9088 12.9998 16.9088C15.155 16.9088 16.9079 15.156 16.9079 13.0008C16.9079 10.8456 15.155 9.09277 12.9998 9.09277V9.09277ZM12.9998 14.8825C11.962 14.8825 11.1182 14.0386 11.1182 13.0008C11.1182 11.963 11.962 11.1192 12.9998 11.1192C14.0376 11.1192 14.8815 11.963 14.8815 13.0008C14.8815 14.0386 14.0376 14.8825 12.9998 14.8825Z" fill="#4B67FA"/>
<path d="M13.0017 5.49875C12.3619 5.49875 11.8438 4.98057 11.8438 4.34081V1.15794C11.8438 0.518176 12.3619 0 13.0017 0C13.6414 0 14.1596 0.518176 14.1596 1.15794V4.34081C14.1596 4.98057 13.6414 5.49875 13.0017 5.49875V5.49875Z" fill="#4B67FA"/>
<path d="M13.0017 26.0002C12.3619 26.0002 11.8438 25.4821 11.8438 24.8423V21.6609C11.8438 21.0211 12.3619 20.5029 13.0017 20.5029C13.6414 20.5029 14.1596 21.0211 14.1596 21.6609V24.8423C14.1596 25.4821 13.6414 26.0002 13.0017 26.0002Z" fill="#4B67FA"/>
<path d="M24.8413 14.1586H21.6599C21.0201 14.1586 20.502 13.6405 20.502 13.0007C20.502 12.3609 21.0201 11.8428 21.6599 11.8428H24.8413C25.4811 11.8428 25.9993 12.3609 25.9993 13.0007C25.9993 13.6405 25.4811 14.1586 24.8413 14.1586Z" fill="#4B67FA"/>
<path d="M4.34081 14.1586H1.15794C0.518176 14.1586 0 13.6405 0 13.0007C0 12.3609 0.518176 11.8428 1.15794 11.8428H4.34081C4.98057 11.8428 5.49875 12.3609 5.49875 13.0007C5.49875 13.6405 4.98057 14.1586 4.34081 14.1586V14.1586Z" fill="#4B67FA"/>
<path d="M12.9992 6.52487C16.57 6.52487 19.4735 9.42985 19.4735 12.9992C19.4735 16.5685 16.5685 19.4735 12.9992 19.4735C9.42985 19.4735 6.52487 16.5685 6.52487 12.9992C6.52487 9.42985 9.42985 6.52487 12.9992 6.52487M12.9992 4.16992C8.12283 4.16992 4.16992 8.12283 4.16992 12.9992C4.16992 17.8755 8.12283 21.8284 12.9992 21.8284C17.8755 21.8284 21.8284 17.8755 21.8284 12.9992C21.8284 8.12283 17.8755 4.16992 12.9992 4.16992V4.16992Z" fill="#596168"/>
</g>
</g>
<defs>
<clipPath id="clip0_2541_7825">
<rect width="26" height="26" fill="white"/>
</clipPath>
<clipPath id="clip1_2541_7825">
<rect width="26" height="26" fill="white"/>
</clipPath>
</defs>
</svg>
