<svg width="24" height="24" viewBox="0 0 24 24" fill="none" xmlns="http://www.w3.org/2000/svg">
<path d="M12 24C18.6274 24 24 18.6274 24 12C24 5.37258 18.6274 0 12 0C5.37258 0 0 5.37258 0 12C0 18.6274 5.37258 24 12 24Z" fill="#FF5959"/>
<path d="M7.61609 17.5046C8.23465 17.5046 8.73609 17.0032 8.73609 16.3846C8.73609 15.7661 8.23465 15.2646 7.61609 15.2646C6.99753 15.2646 6.49609 15.7661 6.49609 16.3846C6.49609 17.0032 6.99753 17.5046 7.61609 17.5046Z" fill="white"/>
<path d="M7.61594 17.6645C6.91194 17.6645 6.33594 17.0885 6.33594 16.3845C6.33594 15.6805 6.91194 15.1045 7.61594 15.1045C8.31994 15.1045 8.89594 15.6805 8.89594 16.3845C8.89594 17.0885 8.31994 17.6645 7.61594 17.6645ZM7.61594 15.4245C7.08794 15.4245 6.65594 15.8565 6.65594 16.3845C6.65594 16.9125 7.08794 17.3445 7.61594 17.3445C8.14394 17.3445 8.57594 16.9125 8.57594 16.3845C8.57594 15.8565 8.14394 15.4245 7.61594 15.4245Z" fill="white"/>
<path d="M16.3368 8.78443C16.9554 8.78443 17.4568 8.28299 17.4568 7.66443C17.4568 7.04587 16.9554 6.54443 16.3368 6.54443C15.7182 6.54443 15.2168 7.04587 15.2168 7.66443C15.2168 8.28299 15.7182 8.78443 16.3368 8.78443Z" fill="white"/>
<path d="M16.3366 8.94428C15.6326 8.94428 15.0566 8.36828 15.0566 7.66428C15.0566 6.96028 15.6326 6.38428 16.3366 6.38428C17.0406 6.38428 17.6166 6.96028 17.6166 7.66428C17.6166 8.36828 17.0406 8.94428 16.3366 8.94428ZM16.3366 6.70428C15.8086 6.70428 15.3766 7.13628 15.3766 7.66428C15.3766 8.19228 15.8086 8.62428 16.3366 8.62428C16.8646 8.62428 17.2966 8.19228 17.2966 7.66428C17.2966 7.13628 16.8646 6.70428 16.3366 6.70428Z" fill="white"/>
<path d="M8.39822 17.1775L17.1211 8.45459L15.5372 6.87067L6.8143 15.5935L8.39822 17.1775Z" fill="white"/>
<path d="M8.3998 17.4076L6.5918 15.5996L15.5518 6.63965L17.3598 8.44765L8.3998 17.4076ZM7.0398 15.5996L8.3998 16.9596L16.8958 8.46365L15.5358 7.10365L7.0398 15.5996Z" fill="white"/>
<path d="M16.3368 17.5046C16.9554 17.5046 17.4568 17.0032 17.4568 16.3846C17.4568 15.7661 16.9554 15.2646 16.3368 15.2646C15.7182 15.2646 15.2168 15.7661 15.2168 16.3846C15.2168 17.0032 15.7182 17.5046 16.3368 17.5046Z" fill="white"/>
<path d="M16.3366 17.6645C15.6326 17.6645 15.0566 17.0885 15.0566 16.3845C15.0566 15.6805 15.6326 15.1045 16.3366 15.1045C17.0406 15.1045 17.6166 15.6805 17.6166 16.3845C17.6166 17.0885 17.0406 17.6645 16.3366 17.6645ZM16.3366 15.4245C15.8086 15.4245 15.3766 15.8565 15.3766 16.3845C15.3766 16.9125 15.8086 17.3445 16.3366 17.3445C16.8646 17.3445 17.2966 16.9125 17.2966 16.3845C17.2966 15.8565 16.8646 15.4245 16.3366 15.4245Z" fill="white"/>
<path d="M7.61609 8.78443C8.23465 8.78443 8.73609 8.28299 8.73609 7.66443C8.73609 7.04587 8.23465 6.54443 7.61609 6.54443C6.99753 6.54443 6.49609 7.04587 6.49609 7.66443C6.49609 8.28299 6.99753 8.78443 7.61609 8.78443Z" fill="white"/>
<path d="M7.61594 8.94428C6.91194 8.94428 6.33594 8.36828 6.33594 7.66428C6.33594 6.96028 6.91194 6.38428 7.61594 6.38428C8.31994 6.38428 8.89594 6.96028 8.89594 7.66428C8.89594 8.36828 8.31994 8.94428 7.61594 8.94428ZM7.61594 6.70428C7.08794 6.70428 6.65594 7.13628 6.65594 7.66428C6.65594 8.19228 7.08794 8.62428 7.61594 8.62428C8.14394 8.62428 8.57594 8.19228 8.57594 7.66428C8.57594 7.13628 8.14394 6.70428 7.61594 6.70428Z" fill="white"/>
<path d="M17.2669 15.7185L8.42969 6.88135L6.82501 8.48602L15.6622 17.3232L17.2669 15.7185Z" fill="white"/>
<path d="M15.6692 17.5487L6.5918 8.47134L8.42349 6.63965L17.5009 15.717L15.6692 17.5487ZM7.04567 8.47134L15.653 17.0787L17.0308 15.7008L8.42349 7.10973L7.04567 8.48755V8.47134Z" fill="white"/>
</svg>
