<svg width="99" height="30" viewBox="0 0 99 30" fill="none" xmlns="http://www.w3.org/2000/svg">
<g clip-path="url(#clip0_2541_6009)">
<g clip-path="url(#clip1_2541_6009)">
<path d="M19.8811 21.9369H3.79297V19.1774H10.2588V17.1826C10.6573 17.2823 11.1941 17.3765 11.8337 17.3776C12.4766 17.3776 13.0168 17.2834 13.4164 17.1826V19.1774H19.8822V21.9369H19.8811Z" fill="#4B67FA"/>
<path d="M7.27435 14.4311C7.62036 14.8977 8.07463 15.302 8.59364 15.6196C9.11265 15.9592 9.65286 16.1926 10.2589 16.3415C10.6574 16.4412 11.1943 16.5354 11.8338 16.5365C12.4767 16.5365 13.0169 16.4423 13.4165 16.3415C14.0003 16.1926 14.5628 15.9592 15.0818 15.6196C15.6008 15.302 16.0328 14.8977 16.4223 14.4311C16.7895 14.0071 17.0931 13.4977 17.3085 12.9248C17.525 12.3727 17.6333 11.7998 17.6333 11.1633C17.6333 10.4414 17.4603 9.74142 17.1578 9.08415C16.8342 8.44769 16.4223 7.89558 15.9033 7.38619C15.3843 6.91953 14.7793 6.53722 14.0873 6.24035C13.3953 5.96429 12.6386 5.81641 11.8606 5.81641C11.0826 5.81641 10.3259 5.96539 9.63389 6.24035C8.92067 6.53722 8.3146 6.91953 7.79559 7.38619C7.27659 7.89558 6.86584 8.44659 6.56337 9.08415C6.23857 9.74252 6.08789 10.4425 6.08789 11.1633C6.08789 11.7998 6.19616 12.3727 6.41269 12.9248C6.6069 13.4977 6.88817 14.0071 7.2777 14.4311H7.27435ZM9.41512 10.2081C9.5446 9.91122 9.71872 9.63516 9.97766 9.40183C10.2154 9.1685 10.4967 8.97789 10.8427 8.84972C11.1452 8.72265 11.4912 8.65911 11.8584 8.65911C12.2044 8.65911 12.5504 8.72265 12.8964 8.84972C13.1989 8.97679 13.4801 9.1685 13.7179 9.40183C13.9344 9.63516 14.1286 9.91122 14.2804 10.2081C14.4099 10.5269 14.4746 10.8445 14.4746 11.1633C14.4746 11.8852 14.2146 12.479 13.7179 12.9675C13.1989 13.4769 12.5939 13.7103 11.8584 13.7103C11.4912 13.7103 11.1452 13.6467 10.8427 13.5196C10.4967 13.3926 10.2154 13.2228 9.97766 12.9675C9.71872 12.755 9.54571 12.479 9.41512 12.1613C9.26333 11.8644 9.19859 11.5248 9.19859 11.1633C9.19859 10.8456 9.26333 10.5269 9.41512 10.2081Z" fill="#4B67FA"/>
<path d="M41.2968 18.2764H25.1875V20.8441H41.2968V18.2764Z" fill="#4B67FA"/>
<path d="M39.3733 17.3428H27.3066V10.2969H30.356V14.5199H39.3733V17.3428Z" fill="#4B67FA"/>
<path d="M39.8917 29.8213H27.5449V24.6014H35.7397V23.9222H28.1063V21.6514H38.8102V26.8712H30.5931V27.5296H39.8917V29.8213Z" fill="#4B67FA"/>
<path d="M69.2043 21.6149C68.4688 21.6149 67.7768 21.4878 67.1283 21.191C66.4798 20.9357 65.9173 20.5545 65.463 20.0659C64.9652 19.6201 64.5768 19.0691 64.3167 18.4315C64.0142 17.7951 63.8848 17.1159 63.8848 16.3731C63.8848 15.6304 64.0142 14.9721 64.3167 14.3356C64.5768 13.6991 64.9652 13.147 65.463 12.6596C65.9173 12.2137 66.4787 11.8533 67.1283 11.5564C67.7768 11.3012 68.4688 11.1533 69.2043 11.1533C69.9399 11.1533 70.6531 11.3023 71.3016 11.5564C71.95 11.8533 72.5126 12.2148 72.9881 12.6596C73.4635 13.1481 73.8319 13.6991 74.1343 14.3356C74.3933 14.9721 74.5451 15.6512 74.5451 16.3731C74.5451 17.0951 74.3933 17.7951 74.1343 18.4315C73.8308 19.068 73.4635 19.6201 72.9881 20.0659C72.5126 20.5545 71.95 20.9368 71.3016 21.191C70.6531 21.4878 69.9388 21.6149 69.2043 21.6149ZM69.2043 13.8689C68.8583 13.8689 68.5558 13.9325 68.2746 14.0595C67.9721 14.1866 67.7344 14.3783 67.5178 14.6117C67.3013 14.845 67.1283 15.121 67.02 15.4179C66.8906 15.7367 66.8258 16.0544 66.8258 16.3731C66.8258 16.7336 66.8906 17.0523 67.02 17.3492C67.1283 17.668 67.3013 17.944 67.5178 18.1555C67.7344 18.4107 67.9721 18.6013 68.2746 18.7284C68.5558 18.8555 68.8583 18.919 69.2043 18.919C69.528 18.919 69.8316 18.8555 70.1341 18.7284C70.4153 18.6013 70.6743 18.4096 70.8908 18.1555C71.1074 17.9429 71.2804 17.668 71.4098 17.3492C71.5181 17.0523 71.5828 16.7336 71.5828 16.3731C71.5828 16.0555 71.5181 15.7367 71.4098 15.4179C71.2804 15.121 71.1074 14.845 70.8908 14.6117C70.6743 14.3783 70.4153 14.1877 70.1341 14.0595C69.8316 13.9325 69.528 13.8689 69.2043 13.8689ZM76.3834 22.7827H79.4539V30.338H68.404V22.5701H71.5616V24.4806H76.3834V22.7827ZM76.3186 26.7515H71.5404V28.089H76.3186V26.7515ZM79.9517 21.8274H76.8377V10.6855H79.9517V21.8274Z" fill="#4B67FA"/>
<path d="M60.7056 20.0421H44.5605V17.2739H51.0487V15.0797H46.4703V5.81543H58.8394V15.0797H54.2175V17.2739H60.7056V20.0421ZM55.7577 12.3115V8.58474H49.5296V12.3115H55.7577Z" fill="#4B67FA"/>
<path d="M82.8262 14.1451H93.3359V16.9035H89.378L94.1786 24.4161L91.6482 26.1995L88.0799 20.2567L84.4904 26.1995L81.9824 24.4161L86.7606 16.9035H82.8251V14.1451H82.8262ZM99.0003 26.7308H95.8427V10.6846H99.0003V26.7297V26.7308Z" fill="#4B67FA"/>
<path d="M4.82175 9.57715H0V12.2292H4.82175V9.57715Z" fill="#4B67FA"/>
<path d="M4.00449 1.66668L2.09375 3.54199L5.50325 6.88828L7.41398 5.01296L4.00449 1.66668Z" fill="#4B67FA"/>
<path d="M13.1866 -0.673828H10.4844V4.05854H13.1866V-0.673828Z" fill="#4B67FA"/>
<path d="M19.6673 1.66641L16.2578 5.0127L18.1686 6.88801L21.578 3.54172L19.6673 1.66641Z" fill="#4B67FA"/>
<path d="M23.6733 9.57715H18.8516V12.2292H23.6733V9.57715Z" fill="#4B67FA"/>
</g>
</g>
<defs>
<clipPath id="clip0_2541_6009">
<rect width="99" height="30" fill="white"/>
</clipPath>
<clipPath id="clip1_2541_6009">
<rect width="99" height="31.0112" fill="white" transform="translate(0 -0.673828)"/>
</clipPath>
</defs>
</svg>
