<svg width="40" height="40" viewBox="0 0 40 40" fill="none" xmlns="http://www.w3.org/2000/svg">
<path d="M36.0785 36.469H3.92243C1.84744 36.469 0.130134 34.8509 0.0129973 32.7835C-0.116689 30.4935 0.726274 28.4719 2.44567 26.939C3.9538 25.5954 6.46387 24.4577 9.90266 23.5592C11.2853 23.1973 12.5361 22.9498 13.3833 22.8001C13.7138 21.862 14.3518 20.6682 15.5712 19.7135C17.3952 18.2867 19.3531 18.295 20.0015 18.293C20.6478 18.293 22.6161 18.2992 24.4234 19.7135C25.6429 20.6682 26.2808 21.862 26.6113 22.8001C27.4585 22.9498 28.7093 23.1973 30.092 23.5592C33.5308 24.4577 36.0408 25.5933 37.5489 26.939C39.2704 28.4719 40.1113 30.4935 39.9816 32.7835C39.8666 34.8509 38.1493 36.469 36.0722 36.469H36.0785ZM19.9408 21.6229C19.4827 21.6229 18.5164 21.6478 17.6441 22.33C16.7028 23.0663 16.4477 24.1125 16.3828 24.5284L16.1883 25.7493L14.9584 25.9178C12.8708 26.2048 6.95333 27.3945 4.68172 29.4182C3.71744 30.2772 3.28445 31.3172 3.35766 32.5984C3.37439 32.9041 3.62331 33.1433 3.92452 33.1433H36.0806C36.3818 33.1433 36.6307 32.9041 36.6474 32.6004C36.7185 31.3192 36.2855 30.2793 35.3234 29.4203C33.0517 27.3966 27.1343 26.2069 25.0467 25.9199L23.8168 25.7514L23.6223 24.5326C23.5553 24.1166 23.3001 23.0684 22.361 22.3342C21.4594 21.6291 20.4366 21.627 19.9973 21.627C19.9806 21.627 19.9618 21.627 19.9408 21.627V21.6229Z" fill="#5E6872"/>
<path d="M26.6613 9.21689C26.4542 5.88701 23.7706 3.22061 20.4217 3.01262C16.9076 2.79839 13.814 5.33584 13.3705 8.79676C13.3475 8.91323 13.335 9.03178 13.335 9.14826C13.335 9.17322 13.335 9.20025 13.3391 9.22521V9.25641C13.3977 10.1882 14.1758 10.9162 15.1129 10.9162C16.05 10.9162 16.847 10.1632 16.8888 9.22521C16.9034 9.18154 16.9139 9.13786 16.9223 9.09418C17.1963 7.56547 18.5852 6.46522 20.1456 6.54009C21.7374 6.61497 23.0406 7.91073 23.1159 9.49352C23.1556 10.3504 22.8502 11.1637 22.2562 11.7835C21.66 12.4053 20.8568 12.7464 19.9971 12.7464C19.0182 12.7464 18.2212 13.5389 18.2191 14.5123V19.8555C18.2191 20.8247 19.0224 21.6234 19.9971 21.6234C20.9718 21.6234 21.7751 20.8247 21.7751 19.8555V16.041C24.8164 15.2111 26.86 12.3804 26.6634 9.21689H26.6613Z" fill="#308AF2"/>
</svg>
